<?xml version="1.0" encoding="UTF-8" standalone="no"?>
<!-- Created with Inkscape (http://www.inkscape.org/) -->

<svg
   xmlns:osb="http://www.openswatchbook.org/uri/2009/osb"
   xmlns:dc="http://purl.org/dc/elements/1.1/"
   xmlns:cc="http://creativecommons.org/ns#"
   xmlns:rdf="http://www.w3.org/1999/02/22-rdf-syntax-ns#"
   xmlns:svg="http://www.w3.org/2000/svg"
   xmlns="http://www.w3.org/2000/svg"
   xmlns:sodipodi="http://sodipodi.sourceforge.net/DTD/sodipodi-0.dtd"
   xmlns:inkscape="http://www.inkscape.org/namespaces/inkscape"
   width="210mm"
   height="297mm"
   id="svg2"
   version="1.1"
   inkscape:version="0.48.4 r9939"
   sodipodi:docname="iFeelGood-blackred.svg"
   inkscape:export-filename="/home/julien/Documents/cours/s3/maquette/Maquettes/Logos/PNG/iFeelGood-blackred.png"
   inkscape:export-xdpi="90"
   inkscape:export-ydpi="90">
  <defs
     id="defs4">
    <linearGradient
       id="linearGradient5215"
       osb:paint="solid">
      <stop
         style="stop-color:#000000;stop-opacity:1;"
         offset="0"
         id="stop5217" />
    </linearGradient>
    <clipPath
       clipPathUnits="userSpaceOnUse"
       id="clipPath5291">
      <path
         style="fill:#ffffff;stroke:#000000;stroke-width:1px;stroke-linecap:butt;stroke-linejoin:miter;stroke-opacity:1"
         d="m 511.19472,556.71353 c 0,0 231.42857,-107.85715 235.71429,-25.71429 4.28571,82.14286 -47.85714,161.42857 -47.85714,161.42857 l -184.28571,46.42858 -140.71429,-36.42858 -95,-125.71428 -1.42858,-94.28572 68.57143,-130 229.28573,-73.57143 89.28571,90.71429 -80,-15.71429 c 0,0 -136.42858,116.42858 -84.28571,141.42858 52.14285,25 10.71427,61.42857 10.71427,61.42857 z"
         id="path5293"
         inkscape:connector-curvature="0" />
    </clipPath>
    <clipPath
       clipPathUnits="userSpaceOnUse"
       id="clipPath5295">
      <path
         style="fill:#ffffff;stroke:#000000;stroke-width:1px;stroke-linecap:butt;stroke-linejoin:miter;stroke-opacity:1"
         d="m 420.78607,547.62216 c 0,0 231.42857,-107.85715 235.71429,-25.71429 4.28571,82.14286 -47.85714,161.42857 -47.85714,161.42857 l -184.28572,46.42858 -140.71428,-36.42858 -95,-125.71428 -1.42858,-94.28572 68.57143,-130 229.28572,-73.57143 89.28571,90.71429 -80,-15.71429 c 0,0 -136.42857,116.42858 -84.28571,141.42858 52.14285,25 10.71428,61.42857 10.71428,61.42857 z"
         id="path5297"
         inkscape:connector-curvature="0" />
    </clipPath>
  </defs>
  <sodipodi:namedview
     id="base"
     pagecolor="#ffffff"
     bordercolor="#666666"
     borderopacity="1.0"
     inkscape:pageopacity="0.0"
     inkscape:pageshadow="2"
     inkscape:zoom="0.98994949"
     inkscape:cx="361.24804"
     inkscape:cy="491.60114"
     inkscape:document-units="px"
     inkscape:current-layer="layer1"
     showgrid="false"
     inkscape:window-width="1920"
     inkscape:window-height="1025"
     inkscape:window-x="0"
     inkscape:window-y="30"
     inkscape:window-maximized="1" />
  <metadata
     id="metadata7">
    <rdf:RDF>
      <cc:Work
         rdf:about="">
        <dc:format>image/svg+xml</dc:format>
        <dc:type
           rdf:resource="http://purl.org/dc/dcmitype/StillImage" />
        <dc:title></dc:title>
      </cc:Work>
    </rdf:RDF>
  </metadata>
  <g
     inkscape:label="Calque 1"
     inkscape:groupmode="layer"
     id="layer1">
    <path
       sodipodi:type="arc"
       style="fill:#000000;fill-opacity:0;fill-rule:evenodd;stroke:#000000;stroke-width:16.10000038000000089;stroke-linecap:butt;stroke-linejoin:miter;stroke-miterlimit:4;stroke-opacity:1;stroke-dasharray:none"
       id="path3001"
       sodipodi:cx="391.93918"
       sodipodi:cy="525.06256"
       sodipodi:rx="159.6041"
       sodipodi:ry="155.56349"
       d="m 551.54327,525.06256 a 159.6041,155.56349 0 1 1 -319.20819,0 159.6041,155.56349 0 1 1 319.20819,0 z"
       clip-path="url(#clipPath5295)"
       transform="translate(7.0710678,-4.5456864)" />
    <path
       sodipodi:type="arc"
       style="opacity:1;fill:#b71c1c;fill-opacity:0;stroke:#b71c1c;stroke-width:16.10000038000000089;stroke-miterlimit:4;stroke-opacity:1;stroke-dasharray:none"
       id="path5221"
       sodipodi:cx="482.09531"
       sodipodi:cy="534.91156"
       sodipodi:rx="123.49115"
       sodipodi:ry="119.95561"
       d="m 605.58646,534.91156 a 123.49115,119.95561 0 1 1 -246.9823,0 123.49115,119.95561 0 1 1 246.9823,0 z"
       transform="translate(-83.337585,-13.63706)"
       clip-path="url(#clipPath5291)"
       inkscape:export-filename="/home/julien/Documents/cours/s3/maquette/Maquettes/Logos/PNG/iFeelGood-blackred.png"
       inkscape:export-xdpi="90"
       inkscape:export-ydpi="90" />
    <path
       id="path5351"
       d="m 564.73069,509.91815 c 8.92241,2.66946 26.03575,-3.43838 41.77558,-7.8169 15.74009,-4.37755 65.07559,-24.23573 64.56875,-26.15803 -0.50658,-1.92134 -29.25722,6.79975 -38.43943,9.22073 -9.17833,2.41997 -21.40258,5.41549 -22.19088,2.42567 -0.78855,-2.99079 6.96579,-3.89254 12.51611,-5.35594 5.55032,-1.4634 46.48152,-12.48284 45.69297,-15.47364 -0.7883,-2.98982 -36.48531,7.10875 -47.36935,9.97844 -10.88404,2.86969 -13.09168,2.31003 -13.59852,0.38772 -0.50683,-1.9223 1.13401,-3.49666 12.02192,-6.36737 10.88792,-2.87071 46.91962,-11.68414 46.13107,-14.67493 -0.7883,-2.98983 -41.83167,7.60416 -47.38199,9.06756 -5.55032,1.46339 -12.74149,4.50115 -13.52978,1.51132 -0.7883,-2.98982 11.32377,-6.41081 20.50211,-8.83077 9.17833,-2.41997 38.49552,-9.00801 37.98868,-10.93032 -0.50684,-1.9223 -53.21602,5.12464 -69.07215,9.07775 -15.85252,3.95113 -33.75293,7.06985 -40.19898,13.79654 -6.44759,6.72089 -5.58806,15.17409 -17.27468,18.48291 -11.68758,3.30906 -113.57302,25.60529 -143.59713,31.23799 -30.02411,5.63271 -76.74832,3.34121 -69.09378,32.37306 7.65429,29.03089 47.17593,4.00082 76.07322,-5.9017 28.89729,-9.90252 128.53298,-40.7394 140.33202,-43.62179 11.80109,-2.87465 15.2206,4.90152 24.14424,7.5717 z"
       inkscape:connector-curvature="0"
       style="fill:#b71c1c;fill-opacity:1" />
    <text
       xml:space="preserve"
       style="font-size:48.30729294000000351px;font-style:italic;font-variant:normal;font-weight:bold;font-stretch:normal;line-height:125%;letter-spacing:0px;word-spacing:0px;fill:#b71c1c;fill-opacity:1;stroke:none;font-family:cmmi10;-inkscape-font-specification:cmmi10 Bold Italic"
       x="193.97099"
       y="672.31964"
       id="text5364"
       sodipodi:linespacing="125%"
       transform="scale(0.82803233,1.2076823)"><tspan
         sodipodi:role="line"
         id="tspan5366"
         x="193.97099"
         y="672.31964"
         style="font-size:86.95312500000000000px;font-style:normal;font-variant:normal;font-weight:normal;font-stretch:normal;fill:#b71c1c;fill-opacity:1;font-family:cmmi10;-inkscape-font-specification:cmmi10"><tspan
           style="font-size:100px;font-style:italic;font-variant:normal;font-weight:normal;font-stretch:normal;fill:#000000;fill-opacity:1;font-family:cmmi10;-inkscape-font-specification:cmmi10 Italic"
           id="tspan5368">i</tspan><tspan
           style="font-size:120.76823425000000611px;fill:#b71c1c;fill-opacity:1"
           id="tspan5378">Feed<tspan
   style="fill:#000000;fill-opacity:1"
   id="tspan5380">Good</tspan></tspan></tspan></text>
  </g>
</svg>
